<?xml version="1.0" standalone="no"?>
<!DOCTYPE svg PUBLIC "-//W3C//DTD SVG 20010904//EN"
 "http://www.w3.org/TR/2001/REC-SVG-20010904/DTD/svg10.dtd">
<svg version="1.0" xmlns="http://www.w3.org/2000/svg"
 width="972.000000pt" height="972.000000pt" viewBox="0 0 972.000000 972.000000"
 preserveAspectRatio="xMidYMid meet">
<metadata>
Created by potrace 1.11, written by Peter Selinger 2001-2013
</metadata>
<g transform="translate(0.000000,972.000000) scale(0.100000,-0.100000)"
fill="#000000" stroke="none">
<path d="M1185 9161 c-55 -20 -100 -56 -240 -196 -114 -115 -143 -146 -210
-230 -22 -27 -42 -52 -45 -55 -39 -35 -228 -323 -296 -450 -16 -30 -33 -58
-37 -61 -5 -3 -9 -9 -8 -12 0 -4 -22 -53 -48 -109 -131 -281 -225 -589 -266
-878 -3 -19 -7 -48 -10 -65 -30 -201 -26 -675 9 -890 2 -16 7 -52 11 -80 4
-27 13 -79 21 -115 8 -36 17 -78 20 -95 4 -25 12 -63 19 -85 37 -127 79 -216
144 -310 65 -93 237 -260 268 -260 6 0 13 -4 15 -9 3 -7 144 -91 154 -91 2 0
23 -9 47 -20 43 -20 187 -69 220 -76 10 -2 28 -6 40 -10 12 -4 33 -8 47 -10
14 -1 36 -5 50 -8 130 -30 451 -28 598 4 82 18 85 18 113 4 27 -14 109 -98
109 -113 0 -5 -8 -11 -17 -15 -59 -19 -179 -105 -181 -128 0 -7 -4 -33 -7 -58
-11 -96 -16 -137 -19 -195 -2 -33 -7 -107 -11 -165 -4 -58 -7 -109 -7 -115 0
-12 12 -137 16 -178 2 -15 0 -30 -4 -32 -7 -4 -7 -27 0 -45 4 -9 -6 -86 -21
-174 -23 -129 -119 -336 -199 -427 -49 -55 -139 -142 -167 -162 -18 -12 -33
-25 -33 -29 0 -10 85 -119 147 -188 119 -132 259 -265 423 -402 79 -66 317
-248 325 -248 3 0 11 -5 18 -10 31 -28 166 -120 175 -120 5 0 17 -9 27 -20 10
-11 21 -20 25 -20 4 0 35 -18 68 -40 33 -22 64 -40 70 -40 6 0 12 -3 14 -7 3
-8 105 -73 113 -73 3 0 34 -18 70 -40 36 -22 69 -40 74 -40 5 0 11 -3 13 -7 2
-5 21 -17 42 -28 49 -25 126 -97 126 -118 0 -8 3 -17 8 -19 4 -1 16 -21 27
-43 82 -167 176 -256 400 -375 174 -93 510 -305 535 -338 3 -4 28 -23 55 -41
28 -19 52 -38 55 -41 4 -4 99 -79 205 -162 6 -4 24 -19 42 -33 55 -44 196
-135 210 -135 7 0 13 -4 13 -10 0 -5 9 -10 19 -10 11 0 23 -4 26 -10 3 -5 25
-15 48 -21 23 -7 47 -14 52 -15 60 -18 104 -22 194 -19 111 4 128 6 148 18 7
5 13 6 13 3 0 -7 63 16 125 45 68 31 175 99 175 110 0 5 5 9 11 9 10 0 172
121 219 163 8 7 35 28 60 47 25 19 47 37 50 40 3 3 52 39 110 80 58 41 107 77
110 80 10 10 69 50 75 50 3 0 32 18 64 40 32 22 61 40 65 40 3 0 29 15 58 33
29 18 87 50 128 72 41 21 87 46 102 57 14 10 31 18 37 18 6 0 11 5 11 10 0 6
4 10 10 10 15 0 49 28 125 106 52 53 83 96 120 168 28 54 61 109 75 123 32 33
121 93 137 93 7 0 13 3 13 8 0 4 22 17 50 30 28 13 50 28 50 33 0 6 4 8 9 4 5
-3 16 2 24 10 9 8 18 15 22 15 7 0 327 201 335 210 3 3 29 21 59 40 30 19 102
69 159 112 57 43 106 78 108 78 2 0 14 9 26 19 13 10 57 47 98 81 41 34 95 78
119 98 139 116 362 348 463 484 l27 36 -32 23 c-58 44 -207 200 -207 217 0 5
-8 17 -19 28 -30 33 -122 234 -127 279 0 6 -4 17 -7 25 -6 16 -13 53 -24 130
-4 25 -6 99 -5 165 4 251 4 315 -2 382 -4 37 -9 95 -11 128 -7 103 -23 203
-36 226 -8 17 -99 74 -156 100 -18 7 -33 17 -33 22 0 15 86 100 114 112 18 8
41 9 65 4 123 -27 187 -33 351 -34 166 0 229 7 387 41 40 8 76 15 80 16 5 0
13 3 18 8 6 4 26 11 45 15 19 4 45 14 57 22 13 9 23 12 23 9 0 -3 44 16 98 43
234 118 398 277 498 482 29 59 69 171 80 224 2 11 6 31 9 45 2 14 9 48 15 75
27 129 43 246 57 400 12 139 7 650 -7 650 -1 0 -3 16 -5 35 -2 19 -4 35 -5 35
-1 0 -3 14 -4 30 -4 42 -25 155 -42 230 -1 6 -7 33 -13 60 -35 157 -135 445
-196 566 -14 27 -22 49 -19 49 4 0 1 6 -5 13 -6 8 -34 58 -62 113 -29 54 -59
110 -68 124 -23 35 -37 58 -68 112 -16 27 -31 48 -35 48 -5 0 -8 6 -8 13 0 7
-8 22 -18 33 -9 10 -43 55 -75 99 -31 44 -70 94 -85 112 -15 17 -42 50 -61 73
-50 61 -227 239 -296 297 -55 46 -90 67 -106 60 -3 -1 -12 3 -20 9 -8 7 -45
11 -89 10 -62 -1 -83 -6 -120 -28 -54 -33 -106 -112 -114 -178 -7 -51 -13 -89
-23 -140 -3 -19 -7 -42 -9 -50 -12 -69 -27 -138 -31 -150 -4 -8 -7 -24 -8 -35
-1 -11 -9 -45 -18 -75 -9 -30 -18 -66 -21 -80 -12 -63 -98 -326 -156 -475 -6
-16 -11 -31 -11 -33 1 -1 -6 -17 -16 -35 -9 -17 -18 -34 -18 -37 -7 -25 -116
-252 -126 -260 -3 -3 -12 -20 -20 -37 -8 -18 -17 -33 -21 -33 -5 0 -8 -6 -8
-12 0 -32 -216 -342 -322 -462 -60 -69 -206 -214 -257 -256 -24 -19 -48 -40
-54 -45 -28 -25 -155 -115 -161 -115 -4 0 -14 -7 -23 -16 -14 -14 -19 -13 -47
14 -50 47 -192 152 -204 152 -7 0 -12 4 -12 9 0 9 -96 71 -111 71 -5 0 -9 5
-9 10 0 6 -5 10 -11 10 -6 0 -23 9 -38 19 -28 20 -303 161 -314 161 -4 0 -30
11 -59 23 -51 23 -145 60 -160 63 -5 1 -9 2 -10 4 -2 1 -10 3 -18 5 -8 2 -42
13 -75 25 -33 11 -61 20 -63 20 -3 -1 -83 21 -112 31 -14 5 -36 11 -50 13 -14
3 -47 10 -75 15 -170 36 -221 45 -415 67 -130 15 -469 8 -570 -11 -9 -2 -41
-6 -71 -10 -72 -8 -110 -15 -130 -21 -10 -2 -30 -7 -45 -9 -16 -2 -39 -7 -51
-10 -13 -3 -33 -7 -45 -11 -13 -3 -34 -7 -48 -10 -37 -8 -194 -52 -248 -71
-26 -8 -51 -17 -57 -18 -43 -9 -300 -118 -399 -168 -113 -58 -278 -155 -287
-169 -3 -5 -9 -9 -13 -8 -9 2 -200 -138 -245 -180 l-34 -32 -83 57 c-46 32
-97 69 -114 84 -17 14 -47 40 -67 56 -111 92 -341 343 -389 424 -10 17 -22 31
-26 31 -4 0 -8 5 -8 11 0 6 -13 28 -30 49 -16 21 -30 42 -30 48 0 6 -4 12 -8
14 -23 9 -264 463 -279 523 -1 6 -25 71 -54 145 -51 135 -75 207 -124 385 -10
33 -18 67 -20 76 -2 8 -10 44 -19 80 -8 35 -18 75 -20 89 -4 22 -17 83 -30
145 -2 11 -7 40 -10 65 -3 25 -9 56 -12 70 -3 14 -7 36 -10 49 -7 36 -34 84
-58 103 -12 10 -27 23 -34 29 -45 38 -167 48 -247 20z"/>
</g>
</svg>
