<svg xmlns="http://www.w3.org/2000/svg" viewBox="0 0 1226.76 963.24"><defs><style>.cls-1{fill:#fff;}.cls-2{fill:#1d1c1c;}.cls-3{fill:#171616;}.cls-4{fill:#262626;}.cls-5{fill:#6d6d6c;}.cls-6{fill:#6d6d6d;}.cls-7{fill:#0b1113;}.cls-8{fill:#444;}.cls-9{fill:#848484;}.cls-10{fill:#3b3b3b;}.cls-11,.cls-15{fill:none;stroke:#0b1113;stroke-miterlimit:10;}.cls-11{stroke-width:6px;}.cls-12{fill:#e2e2e2;}.cls-13{fill:#5e5e5e;}.cls-14{fill:#9b9b9b;}.cls-15{stroke-width:9px;}</style></defs><g id="Layer_13" data-name="Layer 13"><path class="cls-1" d="M603.52,932.81v-164A864.31,864.31,0,0,0,443,604.77c-46.33-36-79.32-53.48-79.65-53.65L339.67,538.7l.4-.31-.34-.18L360.92,522c114.4-87.26,172.13-178.38,200.42-239.46C592,216.41,609.76,118,609.8,117.55h0c17,54.12,66.13,143,108.38,169a62.13,62.13,0,0,1-7.84-17.44l-.08-.28-.07-.27c-14.39-59.11,1.39-104.29,17.16-131.78,17.13-29.85,38-45.82,38.85-46.48l1.54-1.17,1.76-.79a32,32,0,0,1,12.4-2.64,23.56,23.56,0,0,1,22.91,16l1.74,1.39.07,7.34c1.12,6.57,2.46,13,4,19l19.51,47.94a147.23,147.23,0,0,0,26.69,29.75c44.42-33.34,96.57-34.35,102.68-34.35h1.11c6.1,0,58.26,1,102.68,34.35A147.23,147.23,0,0,0,1090,177.4l19.51-47.94c1.54-6.07,2.89-12.47,4-19.05l.09-7.31,1.7-1.37a23.58,23.58,0,0,1,22.93-16,32,32,0,0,1,12.39,2.64l1.77.79,1.54,1.17c.88.66,21.72,16.63,38.84,46.48,15.78,27.49,31.56,72.67,17.17,131.78l-.07.27-.08.28a63.15,63.15,0,0,1-5.15,12.9c41.78-26.07,94.63-113.37,110.71-164.44h0c0,.41,10,100.16,37.23,166.28,25.16,61.07,79.1,152.14,193.2,239.17l20.62,15.72-.41.23.44.34-22.71,12.61c-.29.16-30.9,17.35-74.43,52.94a877.29,877.29,0,0,0-152.68,162.51V932.81L1173,1048.92l-9.59-4.44c-1.19-.55-87.23-39.46-203.34-40.06-116.78.6-202.47,39.66-203.32,40.05l-9.6,4.45Z" transform="translate(-339.67 -85.68)"/><path class="cls-1" d="M1535.47,536.52C1307.08,362.32,1308,171,1308,171c-47,149.16-187.87,158.45-187.87,158.45l-1.2.19c-.47-5.92-1.08-11.67-1.77-13.22s-6.19-4.1-13.77-8.31c3-4.26,8.2-10.11,13.77-8.34,23.61,6.2,66.71-1,76.26-35.22,25.29-103.87-49.75-160.69-49.75-160.69s-10.06-4.51-12.57,4.3c-.16,1.05-.33,2.08-.5,3.12l-.1.08s0,.24,0,.67q-2,12.15-4.8,22.81l-20.59,50.59a167.64,167.64,0,0,1-46.4,46.6c.6-3.46,1.18-5.62,1.18-5.81-43.74-37.54-99.81-36.39-99.81-36.39s-56.06-1.15-99.8,36.39c0,.19.58,2.35,1.18,5.81A167.64,167.64,0,0,1,815,185.4l-20.59-50.59q-2.78-10.68-4.8-22.81c0-.43,0-.67,0-.67l-.1-.08c-.17-1-.34-2.07-.5-3.12-2.51-8.81-12.57-4.3-12.57-4.3s-75,56.82-49.75,160.69c9.55,34.19,52.64,41.42,76.26,35.22,5.57-1.77,10.81,4.08,13.77,8.34-7.58,4.21-13.1,6.8-13.77,8.31-.75,1.69-1.41,8.4-1.89,14.85-4.51-.57-8.8-1.17-12.82-1.82,0,0-128.65-9.29-175.61-158.45,0,0-13,190.38-241.42,364.58l.39.21-.39.3s134,70.12,249.29,227.11V924.7L749.59,1029s88.6-41,210.47-41.61c121.88.6,210.47,41.61,210.47,41.61L1299.61,924.7V761.87C1411,606.12,1535.47,537,1535.47,537l-.39-.3Z" transform="translate(-339.67 -85.68)"/></g><g id="Layer_7" data-name="Layer 7"><path class="cls-2" d="M960,785.68c173.55,0,257.16,116.9,257.16,116.9C1337.16,647.1,1535.47,537,1535.47,537,1307.08,362.84,1308,171.48,1308,171.48c-47,149.17-187.87,158.46-187.87,158.46C1062.32,339.23,960,340.62,960,340.62s-113.94-1.39-171.74-10.68c0,0-128.65-9.29-175.61-158.46,0,0-13,190.39-241.42,364.58,0,0,212.25,111,332.25,366.52C703.48,902.58,791,785.68,960,785.68Z" transform="translate(-339.67 -85.68)"/></g><g id="Layer_6" data-name="Layer 6"><path class="cls-3" d="M452.52,561.68s225,126.58,257.54,307.09c1.17,2.84-16.25,0-16.25,0s-134.71-219-232.26-287.48S452.52,561.68,452.52,561.68Z" transform="translate(-339.67 -85.68)"/><path class="cls-3" d="M785.16,448.77l15.1-5.29S761,522.19,571.48,537c-6.32-2.19,12.78-16.64,12.78-16.64s166.45-49.29,200.9-71.62" transform="translate(-339.67 -85.68)"/><path class="cls-3" d="M1462.35,561.1s-225,126.58-257.55,307.09c-1.16,2.84,16.26,0,16.26,0s134.71-219,232.25-287.48S1462.35,561.1,1462.35,561.1Z" transform="translate(-339.67 -85.68)"/><path class="cls-3" d="M1135.87,449.81l-15.1-6.46s39.23,79.88,228.78,94.71c6.32-2.19-12.78-16.64-12.78-16.64s-166.45-49.29-200.9-71.61" transform="translate(-339.67 -85.68)"/></g><g id="Layer_8" data-name="Layer 8"><path class="cls-4" d="M959.68,774.32s135.93,1.36,244.84,95.14c0,0-203.87-285.59-45.94-454.36,99.87-89.81,122.71-153.81,122.71-153.81l-5.81-5.68s-40.58,91.49-315.8,94.13c-275.23-2.64-315.81-94.13-315.81-94.13l-5.81,5.68s22.84,64,122.71,153.81c157.94,168.77-45.93,454.36-45.93,454.36C823.74,775.68,959.68,774.32,959.68,774.32Z" transform="translate(-339.67 -85.68)"/></g><g id="Layer_5" data-name="Layer 5"><path class="cls-5" d="M819.61,584.26S716,557.28,571.48,537l57.29,25.16Z" transform="translate(-339.67 -85.68)"/><path class="cls-5" d="M714.84,859.74S799,751.61,960,751.61v15.16S840.77,765,714.84,859.74Z" transform="translate(-339.67 -85.68)"/><path class="cls-6" d="M803,348.52s-110.71-17-164.91-87.23c0,0,41.55,85.68,164.91,93.68Z" transform="translate(-339.67 -85.68)"/><path class="cls-5" d="M1100,584.26s103.61-27,248.13-47.23l-9.68,8.13Z" transform="translate(-339.67 -85.68)"/><path class="cls-5" d="M1204.74,859.74S1121,751.61,960,751.61v15.16S1078.81,765,1204.74,859.74Z" transform="translate(-339.67 -85.68)"/><path class="cls-6" d="M1109.68,349.74s117.8-20.39,172-90.58c0,0-48.65,87.81-172,95.81Z" transform="translate(-339.67 -85.68)"/><path class="cls-6" d="M1480.32,515.67s-171-105.86-180.71-281C1299.61,234.71,1309.78,346.45,1480.32,515.67Z" transform="translate(-339.67 -85.68)"/><path class="cls-6" d="M429,512.15s180.16-107,189.84-282.09C618.84,230.06,599.54,342.93,429,512.15Z" transform="translate(-339.67 -85.68)"/><polygon class="cls-6" points="616.72 270.52 463.3 264.06 463.3 269.29 616.72 277.42 616.72 270.52"/><polygon class="cls-6" points="616.59 270.52 770.01 264.06 770.01 269.29 616.72 277.42 616.59 270.52"/></g><g id="Layer_2" data-name="Layer 2"><g id="Layer_4" data-name="Layer 4"><path class="cls-7" d="M432.13,516.13s231.1-13.16,353-67.36c.39.39-49.93,61.55-213.68,88.26.39.39,175,39.49,248.13,47.23.39.77-225.29,4.64-363.87-27.1C392.26,543.35,381,521.74,432.13,516.13Z" transform="translate(-339.67 -85.68)"/><path class="cls-7" d="M1487.35,516.13s-231.09-13.16-353-67.36c-.38.39,49.94,61.55,213.68,88.26-.39.39-175,39.49-248.13,47.23-.39.77,225.29,4.64,363.87-27.1C1463.35,557.55,1568.52,538.19,1487.35,516.13Z" transform="translate(-339.67 -85.68)"/></g><path class="cls-7" d="M618.82,232.86c26.91,47.12,62,74.44,90.07,89.91,37.94,20.92,70.89,24.93,77,25.52,58.69,9.3,169.17,10.75,173.86,10.81h.49c4.22-.06,103.53-1.51,162.14-10.8,6.51-.57,42-4.5,82.69-25.25a235.59,235.59,0,0,0,93.91-86.5,449.09,449.09,0,0,0,19.49,59c25.11,61.71,77.23,151.71,184,239.13-21.21,14.17-54.92,38.73-94.09,74.8a925.14,925.14,0,0,0-195.83,258.6A330.52,330.52,0,0,0,1164.41,828c-41.08-28.19-109.89-61.79-204.41-61.79-92.15,0-160.89,33.57-202.33,61.74a349.08,349.08,0,0,0-49.48,40.63C646,747.06,564.28,660.81,504.88,608.72c-41.58-36.47-77.58-61.25-100.11-75.44,106.59-87,162-176.25,190.08-237.43a492.24,492.24,0,0,0,24-63M1308,171c-47,149.16-187.87,158.45-187.87,158.45C1062.32,338.71,960,340.1,960,340.1s-113.94-1.39-171.74-10.68c0,0-128.65-9.29-175.61-158.45,0,0-13,190.38-241.42,364.58,0,0,212.25,111,332.25,366.51,0,0,87.49-116.9,256.52-116.9,173.55,0,257.16,116.9,257.16,116.9,120-255.48,318.31-365.54,318.31-365.54C1307.08,362.32,1308,171,1308,171Z" transform="translate(-339.67 -85.68)"/></g><g id="Layer_9" data-name="Layer 9"><path class="cls-8" d="M960.06,525.34c-11.44,0-19.2-6.16-30.95-15.49-10-7.89-22.32-17.72-41.44-27.42-10.69-6-12.81-10.48-14.86-14.78-1.77-3.71-3.78-7.92-10.14-11.44-47.77-26.41-69.18-50.15-76-58.92,23.43-19.93,19.55-48.09,18.66-53,.49-10,1.39-21.77,2.13-25.29,1.22-.84,4-2.32,6.46-3.66,10.27-5.53,27.46-14.78,40.86-30.1,16.23-18.55,13.57-44.69,11-57.14,39.47-32.34,88.21-33.29,93.73-33.29h1.11c5.52,0,54.26.95,93.73,33.29-2.52,12.45-5.18,38.59,11.05,57.14,13.4,15.32,30.59,24.57,40.86,30.1,2.48,1.34,5.24,2.82,6.46,3.66.74,3.52,1.64,15.26,2.13,25.29-.89,4.92-4.77,33.08,18.66,53-6.86,8.76-28.27,32.5-76,58.92-6.36,3.52-8.37,7.73-10.14,11.44-2,4.3-4.17,8.74-14.87,14.78C1013.34,492.13,1001,502,991,509.85,979.27,519.18,971.51,525.34,960.06,525.34Z" transform="translate(-339.67 -85.68)"/><path class="cls-9" d="M960.06,206.84s52.59-.58,89.75,25c1.54.38,5.47-4.65,5.47-4.65s-48-34.64-95.22-34.64-95.21,34.64-95.21,34.64,3.92,5,5.47,4.65C907.48,206.26,960.06,206.84,960.06,206.84Z" transform="translate(-339.67 -85.68)"/><path class="cls-10" d="M932.9,508.52A156.35,156.35,0,0,0,892,475.87c-14-7.55-9.38-14.6-17.46-20.24-37.13-21.81-69.64-47.65-74.22-67.89-11.55,1.68-10.77,13.94-10.77,13.94l20,19.74,37.93,25.16,33.68,30.32,31.23,18.2Z" transform="translate(-339.67 -85.68)"/><path class="cls-10" d="M987.23,508.52a156.35,156.35,0,0,1,40.9-32.65c14-7.55,9.37-14.6,17.46-20.24,37.13-21.81,69.64-47.65,74.22-67.89,11.54,1.68,10.77,13.94,10.77,13.94l-20,19.74-37.93,25.16L1039,476.9l-31.23,18.2Z" transform="translate(-339.67 -85.68)"/><path class="cls-7" d="M960.62,198.8c5.28,0,51.3.89,89.34,30.89-4.2,23.23.23,44.23,12.43,58.17,13.88,15.87,31.46,25.34,42,31,1.58.84,3.4,1.83,4.71,2.58.62,4.46,1.35,14.19,1.76,22.61-1,6.31-4,33.22,17.18,53.66-8.55,10.07-29.82,31.41-72.49,55-7.48,4.14-9.88,9.18-11.81,13.22s-3.62,7.58-13.15,13c-19.42,9.88-31.95,19.82-42,27.82-12.44,9.87-18.84,14.62-28.47,14.62s-16-4.75-28.46-14.62c-10.08-8-22.61-17.94-42-27.82-9.53-5.39-11.29-9.07-13.15-13s-4.33-9.08-11.81-13.22c-42.69-23.6-64-44.95-72.49-55,21.17-20.44,18.22-47.36,17.18-53.66.41-8.42,1.14-18.15,1.76-22.61,1.31-.75,3.13-1.74,4.71-2.58,10.5-5.66,28.09-15.13,42-31,12.2-13.94,16.63-34.94,12.43-58.17,38-30,84.05-30.89,89.34-30.89h1.11m0-9h-1.11c-5.9,0-58,1-99.25,36.39,0,.78,9.68,34.07-9.29,55.75s-46.45,31-48,34.45-2.71,28.26-2.71,28.26,6.94,32-20.51,51.67c0,0,18.19,29.81,80.5,64.27,11.63,6.43,3.88,14.31,25.06,26.25,42.11,21.35,51,43.5,74.75,43.5s32.65-22.15,74.76-43.5c21.18-11.94,13.43-19.82,25.06-26.25,62.31-34.46,80.5-64.27,80.5-64.27-27.45-19.72-20.51-51.67-20.51-51.67s-1.16-24.78-2.71-28.26-29-12.78-48-34.45-9.29-55-9.29-55.75c-41.21-35.37-93.35-36.39-99.25-36.39Z" transform="translate(-339.67 -85.68)"/></g><g id="Layer_10" data-name="Layer 10"><path class="cls-9" d="M960,366.77c37,0,47,19.71,47,19.71s.7,4.36-4.07,2.42c-10.32-15.09-42.91-14.84-42.91-14.84s-32.58-.25-42.9,14.84c-4.77,1.94-4.07-2.42-4.07-2.42S923.07,366.77,960,366.77Z" transform="translate(-339.67 -85.68)"/><path class="cls-7" d="M893.16,397.29a21.55,21.55,0,0,1,7.86-6.47,29.9,29.9,0,0,1,9.82-3.07c.85-.15,1.72-.16,2.58-.23a20.2,20.2,0,0,1,2.58,0c.86.05,1.72.08,2.57.16s1.69.28,2.53.43a28.4,28.4,0,0,1,4.9,1.43,15.68,15.68,0,0,1,2.31,1.09,25.31,25.31,0,0,1,2.21,1.27c-1.74.14-3.37,0-5,.05s-3.2-.05-4.78.08l-2.34.06c-.77.08-1.54.12-2.31.17s-1.54.12-2.3.21-1.54.11-2.29.26a75.78,75.78,0,0,0-9.08,1.77C899.39,395.23,896.37,396.15,893.16,397.29Z" transform="translate(-339.67 -85.68)"/><path class="cls-11" d="M1010.13,390.52c-17.23-25.17-50.07-23.23-50.07-23.23s-32.83-1.94-50.06,23.23" transform="translate(-339.67 -85.68)"/><path class="cls-7" d="M1027,397.29c-3.21-1.14-6.23-2.06-9.27-2.82a75.78,75.78,0,0,0-9.08-1.77c-.75-.15-1.53-.16-2.29-.26s-1.53-.19-2.3-.21-1.54-.09-2.32-.17l-2.33-.06c-1.58-.13-3.15,0-4.78-.08s-3.25.09-5-.05a25.31,25.31,0,0,1,2.21-1.27,15.68,15.68,0,0,1,2.31-1.09,28.4,28.4,0,0,1,4.9-1.43c.83-.15,1.68-.33,2.53-.43s1.71-.11,2.57-.16a20.2,20.2,0,0,1,2.58,0c.86.07,1.73.08,2.58.23a29.9,29.9,0,0,1,9.82,3.07A21.55,21.55,0,0,1,1027,397.29Z" transform="translate(-339.67 -85.68)"/><path class="cls-7" d="M960.13,404.26s51.55-2.13,93.55,20.51c-.2.39-27.68,43.17-27.68,43.17l-5.23-12-22.83,32.74s-14.91-3.88-37.88,2.7c-23-6.58-37.87-2.7-37.87-2.7l-22.84-32.74-5.22,12s-27.48-42.78-27.68-43.17c42-22.64,93.55-20.51,93.55-20.51" transform="translate(-339.67 -85.68)"/><path class="cls-1" d="M960.13,412.75s53.68-2.71,84.84,15.87c-.2.19-16.07,27.29-16.07,27.29l-6.19-21.65s-22.06-8.35-62.65-1.19c-40.58-7.16-62.64,1.19-62.64,1.19l-6.19,21.65s-15.88-27.1-16.07-27.29C906.32,410,960,412.75,960,412.75" transform="translate(-339.67 -85.68)"/><path class="cls-1" d="M960.06,482.22c23.75-6.58,33.88-2.13,33.88-2.13s17.61-28.06,17.8-28.25c-19.74,20.71-51.68,13.54-51.68,13.54s-31.93,7.17-51.67-13.54c.19.19,17.8,28.25,17.8,28.25S936.32,475.64,960.06,482.22Z" transform="translate(-339.67 -85.68)"/><path class="cls-7" d="M893.16,377.94a41.63,41.63,0,0,1-10.69-1.41c-12.68-3.45-20.7-13.26-24.61-28.77a66.23,66.23,0,0,1-2.15-13.64c-.79-15.21,4.08-25.41,3.77-30.12-1-11.61-6.09-14.32-6.09-14.32l7.84-6.78s8.51,6.2,13.93,19.55c.19.39,28.84,16.65,31.94,41.61C909.81,357.42,906.52,377.74,893.16,377.94Z" transform="translate(-339.67 -85.68)"/><path class="cls-1" d="M893.55,362.93c-2.63,2.36-7.58,2.39-12.87,1.84-7.57-6.54-28-36.1-5.81-45.75C879.83,322.44,894.56,350.79,893.55,362.93Z" transform="translate(-339.67 -85.68)"/><path class="cls-12" d="M895.48,358.77a6.08,6.08,0,0,1-1.93,4.16c-.7-12.65-13.78-35.69-18.68-43.91a25.14,25.14,0,0,1,2.55-1S898.39,338.06,895.48,358.77Z" transform="translate(-339.67 -85.68)"/><path class="cls-9" d="M882.47,376.53c-6.5.49-16.58-1.43-24.73-14.85-7.1-11.69-5.25-21.24-2-27.56a66.23,66.23,0,0,0,2.15,13.64C861.77,363.27,869.79,373.08,882.47,376.53Z" transform="translate(-339.67 -85.68)"/><path class="cls-7" d="M1027,377.94a41.63,41.63,0,0,0,10.69-1.41c12.68-3.45,20.7-13.26,24.61-28.77a66.23,66.23,0,0,0,2.15-13.64c.79-15.21-4.08-25.41-3.77-30.12,1-11.61,6.09-14.32,6.09-14.32l-7.84-6.78s-8.51,6.2-13.93,19.55c-.19.39-28.84,16.65-31.94,41.61C1010.32,357.42,1013.61,377.74,1027,377.94Z" transform="translate(-339.67 -85.68)"/><path class="cls-1" d="M1026.58,362.93c2.63,2.36,7.58,2.39,12.87,1.84,7.57-6.54,28-36.1,5.81-45.75C1039.45,326,1025,350.45,1026.58,362.93Z" transform="translate(-339.67 -85.68)"/><path class="cls-12" d="M1024.65,358.77a6.08,6.08,0,0,0,1.93,4.16c.7-12.65,13.78-35.69,18.68-43.91a25.14,25.14,0,0,0-2.55-1S1021.74,338.06,1024.65,358.77Z" transform="translate(-339.67 -85.68)"/><path class="cls-9" d="M1037.66,376.53c6.5.49,16.58-1.43,24.73-14.85,7.1-11.69,5.25-21.24,2-27.56a66.23,66.23,0,0,1-2.15,13.64C1058.36,363.27,1050.34,373.08,1037.66,376.53Z" transform="translate(-339.67 -85.68)"/></g><g id="Layer_11" data-name="Layer 11"><path class="cls-13" d="M864.85,234.32S804.52,210.71,789,108.13c-2.51-8.81-12.57-4.3-12.57-4.3s-75,56.82-49.75,160.69c9.55,34.19,52.64,41.42,76.26,35.22,8.51-2.71,16.26,12.39,16.26,12.39S845.16,302.06,859.1,280,864.85,234.32,864.85,234.32Z" transform="translate(-339.67 -85.68)"/><path class="cls-14" d="M780.65,107.23S738.77,202.58,849.42,287c2.71-1.16,1.42-11.49,1.42-11.49L827.1,247.61l-19.9-31.22L796.39,197.1l-11.33-30.42-4.71-19L779.78,130l1.44-15,1-4.62.68-2.33.3-.84-.73-.88Z" transform="translate(-339.67 -85.68)"/><path class="cls-14" d="M862.81,245.29s-75.62-18.58-78.2-136.77c1.55,0,5,2.81,5,2.81s.54,74.61,75.31,123c4.32,3.49-2.13,11-2.13,11" transform="translate(-339.67 -85.68)"/><path class="cls-14" d="M821.65,304.74s-9.39-20.09-45.39-46.8c3.14.27,35.32,5.15,50.63,43.54-.31,1.49-2.37,4.2-2.37,4.2Z" transform="translate(-339.67 -85.68)"/><path class="cls-15" d="M864.85,234.32S804.52,210.71,789,108.13c-2.51-8.81-12.57-4.3-12.57-4.3s-75,56.82-49.75,160.69c9.55,34.19,52.64,41.42,76.26,35.22,8.51-2.71,16.26,12.39,16.26,12.39S845.16,302.06,859.1,280,864.85,234.32,864.85,234.32Z" transform="translate(-339.67 -85.68)"/><path class="cls-7" d="M776.26,257.94a53,53,0,0,1,10.07.05,75.15,75.15,0,0,1,10.12,1.66,81.64,81.64,0,0,1,19.63,7.45,91.23,91.23,0,0,1,17.68,12.38,111.63,111.63,0,0,1,14.86,16.14l-20.94,11.73a91.45,91.45,0,0,0-7.59-16.16A76,76,0,0,0,809,276.79a72.33,72.33,0,0,0-14.75-11.56A61.23,61.23,0,0,0,776.26,257.94Z" transform="translate(-339.67 -85.68)"/><path class="cls-7" d="M783.23,107.23a61.24,61.24,0,0,0-2.35,12.06,102.67,102.67,0,0,0-.49,12.27,129.66,129.66,0,0,0,2.89,24.3,164.12,164.12,0,0,0,6.87,23.45A224.31,224.31,0,0,0,800,201.64a287,287,0,0,0,26.26,41.08,400.24,400.24,0,0,0,32.08,36.77l-7.31,6.82a409.11,409.11,0,0,1-30.85-39.19,292,292,0,0,1-24.68-43.32,225.79,225.79,0,0,1-8.92-23.27,166.82,166.82,0,0,1-5.78-24.21,131.84,131.84,0,0,1-1.68-24.77,104,104,0,0,1,1.12-12.34A61.38,61.38,0,0,1,783.23,107.23Z" transform="translate(-339.67 -85.68)"/><path class="cls-13" d="M1055.28,234.32s60.33-23.61,75.82-126.19c2.51-8.81,12.57-4.3,12.57-4.3s75,56.82,49.75,160.69c-9.55,34.19-52.65,41.42-76.26,35.22-8.51-2.71-16.26,12.39-16.26,12.39S1075,302.06,1061,280,1055.28,234.32,1055.28,234.32Z" transform="translate(-339.67 -85.68)"/><path class="cls-14" d="M1139.48,107.23s41.87,95.35-68.77,179.74c-2.71-1.16-1.42-11.49-1.42-11.49L1093,247.61l19.9-31.22,10.81-19.29,11.32-30.42,4.72-19,.57-17.67-1.44-15-1-4.62-.68-2.33-.3-.84.73-.88Z" transform="translate(-339.67 -85.68)"/><path class="cls-14" d="M1057.32,245.29s75.62-18.58,78.2-136.77c-1.55,0-5,2.81-5,2.81s-.55,74.61-75.31,123c-4.32,3.49,2.13,11,2.13,11" transform="translate(-339.67 -85.68)"/><path class="cls-14" d="M1098.47,304.74s9.4-20.09,45.4-46.8c-3.14.27-35.33,5.15-50.63,43.54.31,1.49,2.37,4.2,2.37,4.2Z" transform="translate(-339.67 -85.68)"/><path class="cls-15" d="M1055.28,234.32s60.33-23.61,75.82-126.19c2.51-8.81,12.57-4.3,12.57-4.3s75,56.82,49.75,160.69c-9.55,34.19-52.65,41.42-76.26,35.22-8.51-2.71-16.26,12.39-16.26,12.39S1075,302.06,1061,280,1055.28,234.32,1055.28,234.32Z" transform="translate(-339.67 -85.68)"/><path class="cls-7" d="M1143.87,257.94a61.23,61.23,0,0,0-18,7.29,72.33,72.33,0,0,0-14.75,11.56,76,76,0,0,0-11.09,14.4,91.45,91.45,0,0,0-7.59,16.16l-20.94-11.73a111.63,111.63,0,0,1,14.86-16.14,91.23,91.23,0,0,1,17.68-12.38,81.64,81.64,0,0,1,19.63-7.45A75.15,75.15,0,0,1,1133.8,258,53,53,0,0,1,1143.87,257.94Z" transform="translate(-339.67 -85.68)"/><path class="cls-7" d="M1136.9,107.23a62.84,62.84,0,0,1,3,12,101.93,101.93,0,0,1,1.11,12.34,131,131,0,0,1-1.67,24.77,168.14,168.14,0,0,1-5.78,24.21,228.11,228.11,0,0,1-8.92,23.27,292,292,0,0,1-24.68,43.32,407.64,407.64,0,0,1-30.86,39.19l-7.31-6.82a400.35,400.35,0,0,0,32.09-36.77,286.09,286.09,0,0,0,26.25-41.08,222.1,222.1,0,0,0,9.88-22.33,164.12,164.12,0,0,0,6.87-23.45,128.83,128.83,0,0,0,2.88-24.3,100.61,100.61,0,0,0-.48-12.27A61.24,61.24,0,0,0,1136.9,107.23Z" transform="translate(-339.67 -85.68)"/></g><g id="Layer_12" data-name="Layer 12"><path class="cls-7" d="M960.06,750.38h339.55V924.7L1170.53,1029s-88.59-41-210.47-41.61C838.19,988,749.59,1029,749.59,1029L620.52,924.7V750.38Z" transform="translate(-339.67 -85.68)"/><path class="cls-1" d="M732.11,781.15l-12.67-12.67H658.22l-12.07,13.57V914.3l38.9,31.21,47.06-34.38V856.24l-21.52-12.37,21.52-12.07ZM697.43,893.63,678.57,906.8V861.27l18.86,12Zm0-77-18.86,11.31V802.4h18.86Z" transform="translate(-339.67 -85.68)"/><path class="cls-1" d="M822.73,768.48H761.51l-12.12,13.46v131.9l32.77,26.24h.16V884.89h18.54v55.19H801l34.53-26.24V781.94Zm-21.87,82.18H782.32V802.4h18.54Z" transform="translate(-339.67 -85.68)"/><polygon class="cls-1" points="513.27 682.8 513.27 722.21 537.8 722.21 537.8 828.36 572.58 854.41 572.58 722.41 597.31 722.41 597.31 682.8 513.27 682.8"/><polygon class="cls-1" points="615.61 825.15 615.61 682.8 650.59 682.8 672.91 734.47 698.64 682.8 733.02 682.8 733.02 825.15 698.64 850.48 698.64 770.66 675.72 826.15 650.19 770.06 650.19 850.48 615.61 825.15"/><path class="cls-1" d="M1166,768.48h-60.73L1093,781.74v131.9l39.41,31.77,46.43-34.18V781.74ZM1144.27,906.6l-18.5-16.19v-88h18.5Z" transform="translate(-339.67 -85.68)"/><path class="cls-1" d="M1270.14,768.48h-74V942l86.46-59.5V781.54Zm-22.33,101.33-18.5,11.86V802.45h18.5Z" transform="translate(-339.67 -85.68)"/></g></svg>