<svg xmlns="http://www.w3.org/2000/svg" viewBox="0 0 1280.71 262.07"><defs><style>.cls-1{fill:#444;}.cls-2{fill:#848484;}.cls-3{fill:#3b3b3b;}.cls-4{fill:#0b1113;}.cls-10,.cls-5{fill:none;stroke:#0b1113;stroke-miterlimit:10;}.cls-5{stroke-width:3.64px;}.cls-6{fill:#fff;}.cls-7{fill:#e2e2e2;}.cls-8{fill:#5e5e5e;}.cls-9{fill:#9b9b9b;}.cls-10{stroke-width:5.46px;}</style></defs><g id="Layer_5" data-name="Layer 5"><path class="cls-1" d="M152.14,766.71c-6.94,0-11.65-3.73-18.77-9.39a138.74,138.74,0,0,0-25.13-16.63c-6.48-3.66-7.77-6.35-9-9a13.46,13.46,0,0,0-6.15-6.94c-29-16-42-30.41-46.12-35.73C61.17,677,58.82,659.9,58.28,656.92c.29-6.09.84-13.21,1.29-15.34.74-.51,2.41-1.41,3.92-2.22,6.22-3.35,16.64-9,24.77-18.26,9.85-11.24,8.23-27.1,6.7-34.65,23.94-19.61,53.5-20.19,56.85-20.19h.67c3.35,0,32.9.58,56.84,20.19-1.53,7.55-3.14,23.41,6.7,34.65,8.13,9.29,18.55,14.91,24.78,18.26,1.5.81,3.17,1.71,3.92,2.22.44,2.13,1,9.25,1.29,15.34-.54,3-2.9,20.06,11.31,32.14-4.16,5.31-17.14,19.71-46.12,35.73a13.5,13.5,0,0,0-6.15,6.94c-1.24,2.61-2.52,5.3-9,9a139.1,139.1,0,0,0-25.13,16.63C163.79,763,159.08,766.71,152.14,766.71Z" transform="translate(-4.74 -507.67)"/><path class="cls-2" d="M152.14,573.57s31.89-.36,54.42,15.14c.94.23,3.32-2.82,3.32-2.82s-29.1-21-57.74-21-57.74,21-57.74,21,2.38,3.05,3.32,2.82C120.25,573.21,152.14,573.57,152.14,573.57Z" transform="translate(-4.74 -507.67)"/><path class="cls-3" d="M135.67,756.51a95.06,95.06,0,0,0-24.81-19.79c-8.46-4.58-5.68-8.86-10.59-12.28-22.51-13.23-42.22-28.9-45-41.17-7,1-6.53,8.45-6.53,8.45l12.12,12,23,15.26,20.42,18.39,18.94,11Z" transform="translate(-4.74 -507.67)"/><path class="cls-3" d="M168.61,756.51a95.06,95.06,0,0,1,24.81-19.79c8.47-4.58,5.68-8.86,10.59-12.28,22.51-13.23,42.23-28.9,45-41.17,7,1,6.54,8.45,6.54,8.45l-12.13,12-23,15.26L200,737.34l-18.94,11Z" transform="translate(-4.74 -507.67)"/><path class="cls-4" d="M152.48,568.69c3.2,0,31.1.54,54.18,18.74-2.55,14.08.14,26.82,7.53,35.27,8.42,9.62,19.08,15.37,25.46,18.8.95.51,2.06,1.11,2.85,1.57.38,2.7.82,8.6,1.07,13.7-.63,3.83-2.42,20.15,10.42,32.54-5.19,6.11-18.09,19.05-44,33.36a15.7,15.7,0,0,0-7.17,8c-1.12,2.36-2.19,4.59-8,7.87a140.28,140.28,0,0,0-25.48,16.86c-7.55,6-11.43,8.87-17.27,8.87s-9.72-2.88-17.26-8.87a140.42,140.42,0,0,0-25.49-16.86c-5.78-3.28-6.84-5.51-8-7.87a15.65,15.65,0,0,0-7.17-8c-25.88-14.31-38.78-27.26-43.95-33.35,12.83-12.4,11.05-28.72,10.41-32.55.25-5.1.69-11,1.07-13.7.79-.46,1.9-1.06,2.86-1.57,6.37-3.43,17-9.18,25.45-18.8,7.4-8.45,10.09-21.19,7.53-35.27,23.08-18.2,51-18.74,54.19-18.74h.67m0-5.46h-.67c-3.59,0-35.21.62-60.19,22.07,0,.47,5.86,20.66-5.64,33.81S57.81,637.89,56.87,640s-1.64,17.14-1.64,17.14,4.21,19.37-12.43,31.33c0,0,11,18.08,48.81,39,7,3.9,2.35,8.68,15.2,15.92,25.53,13,30.93,26.38,45.33,26.38s19.8-13.43,45.33-26.38c12.85-7.24,8.15-12,15.2-15.92,37.79-20.9,48.82-39,48.82-39-16.65-12-12.44-31.33-12.44-31.33s-.7-15-1.64-17.14-17.61-7.75-29.11-20.89-5.63-33.34-5.63-33.81c-25-21.45-56.62-22.07-60.19-22.07Z" transform="translate(-4.74 -507.67)"/><path class="cls-2" d="M152.12,670.55c22.42,0,28.51,12,28.51,12s.42,2.64-2.47,1.47c-6.26-9.16-26-9-26-9s-19.76-.16-26,9c-2.89,1.17-2.47-1.47-2.47-1.47S129.71,670.55,152.12,670.55Z" transform="translate(-4.74 -507.67)"/><path class="cls-4" d="M111.57,689.06a13,13,0,0,1,4.77-3.92,18,18,0,0,1,6-1.86,18.29,18.29,0,0,1,6.22.2,17.85,17.85,0,0,1,3,.86,17.34,17.34,0,0,1,2.73,1.44c-1.05.09-2,0-3,0s-1.94,0-2.9,0a51.58,51.58,0,0,0-5.6.43,46.16,46.16,0,0,0-5.51,1.07C115.35,687.81,113.51,688.37,111.57,689.06Z" transform="translate(-4.74 -507.67)"/><path class="cls-5" d="M182.5,685c-10.44-15.25-30.36-14.08-30.36-14.08S132.23,669.7,121.78,685" transform="translate(-4.74 -507.67)"/><path class="cls-4" d="M192.71,689.06c-1.94-.69-3.77-1.25-5.62-1.71a46.16,46.16,0,0,0-5.51-1.07,51.58,51.58,0,0,0-5.6-.43c-1-.08-1.91,0-2.9,0s-2,.06-3,0a15.34,15.34,0,0,1,5.71-2.3,18.29,18.29,0,0,1,6.22-.2,18.08,18.08,0,0,1,6,1.86A12.94,12.94,0,0,1,192.71,689.06Z" transform="translate(-4.74 -507.67)"/><path class="cls-4" d="M152.18,693.29s31.26-1.29,56.73,12.44c-.12.23-16.78,26.17-16.78,26.17L189,724.61l-13.85,19.85s-9-2.35-23,1.65c-13.93-4-23-1.65-23-1.65l-13.85-19.85-3.17,7.29S95.49,706,95.37,705.73c25.47-13.73,56.73-12.44,56.73-12.44" transform="translate(-4.74 -507.67)"/><path class="cls-6" d="M152.18,698.43s32.55-1.64,51.45,9.63c-.12.12-9.74,16.55-9.74,16.55l-3.76-13.13s-13.38-5.06-38-.72c-24.61-4.34-38,.72-38,.72l-3.75,13.13s-9.63-16.43-9.75-16.55c18.9-11.27,51.45-9.63,51.45-9.63" transform="translate(-4.74 -507.67)"/><path class="cls-6" d="M152.14,740.57c14.4-4,20.54-1.29,20.54-1.29s10.68-17,10.8-17.14c-12,12.56-31.34,8.22-31.34,8.22s-19.37,4.34-31.34-8.22c.12.12,10.8,17.14,10.8,17.14S137.74,736.58,152.14,740.57Z" transform="translate(-4.74 -507.67)"/><path class="cls-4" d="M111.57,677.33a25.26,25.26,0,0,1-6.48-.86c-7.69-2.09-12.56-8-14.93-17.44a40.34,40.34,0,0,1-1.3-8.28c-.48-9.22,2.47-15.41,2.28-18.26-.58-7-3.69-8.69-3.69-8.69l4.76-4.11a28.76,28.76,0,0,1,8.44,11.86c.12.23,17.49,10.1,19.37,25.23C121.67,664.88,119.67,677.21,111.57,677.33Z" transform="translate(-4.74 -507.67)"/><path class="cls-6" d="M111.8,668.22c-1.59,1.44-4.59,1.45-7.8,1.12-4.59-4-17-21.89-3.52-27.74C103.49,643.67,112.42,660.86,111.8,668.22Z" transform="translate(-4.74 -507.67)"/><path class="cls-7" d="M113,665.7a3.71,3.71,0,0,1-1.18,2.52c-.42-7.67-8.35-21.64-11.32-26.62A14.53,14.53,0,0,1,102,641S114.74,653.14,113,665.7Z" transform="translate(-4.74 -507.67)"/><path class="cls-2" d="M105.09,676.47c-4,.3-10.06-.86-15-9-4.31-7.09-3.18-12.88-1.23-16.72a40.34,40.34,0,0,0,1.3,8.28C92.53,668.43,97.4,674.38,105.09,676.47Z" transform="translate(-4.74 -507.67)"/><path class="cls-4" d="M192.71,677.33a25.34,25.34,0,0,0,6.49-.86c7.69-2.09,12.55-8,14.92-17.44a39.66,39.66,0,0,0,1.3-8.28c.48-9.22-2.47-15.41-2.28-18.26.58-7,3.69-8.69,3.69-8.69l-4.75-4.11s-5.16,3.76-8.45,11.86c-.12.23-17.49,10.1-19.37,25.23C182.62,664.88,184.61,677.21,192.71,677.33Z" transform="translate(-4.74 -507.67)"/><path class="cls-6" d="M192.48,668.22c1.59,1.44,4.59,1.45,7.8,1.12,4.59-4,17-21.89,3.53-27.74C200.28,645.83,191.54,660.66,192.48,668.22Z" transform="translate(-4.74 -507.67)"/><path class="cls-7" d="M191.31,665.7a3.66,3.66,0,0,0,1.17,2.52c.42-7.67,8.35-21.64,11.33-26.62a14.72,14.72,0,0,0-1.55-.59S189.54,653.14,191.31,665.7Z" transform="translate(-4.74 -507.67)"/><path class="cls-2" d="M199.2,676.47c3.94.3,10.05-.86,15-9,4.31-7.09,3.19-12.88,1.23-16.72a39.66,39.66,0,0,1-1.3,8.28C211.75,668.43,206.89,674.38,199.2,676.47Z" transform="translate(-4.74 -507.67)"/><path class="cls-8" d="M94.4,590.23s-36.59-14.32-46-76.52c-1.52-5.34-7.62-2.61-7.62-2.61s-45.51,34.45-30.17,97.44c5.79,20.74,31.92,25.12,46.24,21.37,5.17-1.65,9.86,7.51,9.86,7.51s15.73-6.11,24.18-19.49S94.4,590.23,94.4,590.23Z" transform="translate(-4.74 -507.67)"/><path class="cls-9" d="M43.34,513.16S17.94,571,85,622.16c1.65-.7.86-7,.86-7L71.51,598.29,59.44,579.36l-6.56-11.7L46,549.21l-2.86-11.54L42.81,527l.88-9.06.62-2.81.41-1.41.18-.51-.44-.53Z" transform="translate(-4.74 -507.67)"/><path class="cls-9" d="M93.16,596.89s-45.85-11.27-47.42-82.95c.94,0,3,1.71,3,1.71s.32,45.24,45.67,74.58c2.61,2.12-1.3,6.66-1.3,6.66" transform="translate(-4.74 -507.67)"/><path class="cls-9" d="M68.21,632.93s-5.7-12.18-27.53-28.38c1.9.17,21.42,3.13,30.7,26.41a9.85,9.85,0,0,1-1.44,2.55Z" transform="translate(-4.74 -507.67)"/><path class="cls-10" d="M94.4,590.23s-36.59-14.32-46-76.52c-1.52-5.34-7.62-2.61-7.62-2.61s-45.51,34.45-30.17,97.44c5.79,20.74,31.92,25.12,46.24,21.37,5.17-1.65,9.86,7.51,9.86,7.51s15.73-6.11,24.18-19.49S94.4,590.23,94.4,590.23Z" transform="translate(-4.74 -507.67)"/><path class="cls-4" d="M40.68,604.55a38.83,38.83,0,0,1,12.23,1.06,49.26,49.26,0,0,1,11.91,4.51c1,.49,1.86,1.08,2.8,1.63l1.41.85,1.32.95c.89.64,1.79,1.27,2.67,1.94l2.5,2.15,1.26,1.09,1.16,1.17,2.33,2.38c1.5,1.64,2.85,3.39,4.29,5.12l-12.7,7.12c-.69-1.63-1.31-3.35-2.06-5l-1.23-2.42L68,625.89l-.72-1.15-1.44-2.33-1.64-2.2-.83-1.12-.91-1c-.63-.68-1.22-1.42-1.88-2.07a44.41,44.41,0,0,0-9-7A37.32,37.32,0,0,0,40.68,604.55Z" transform="translate(-4.74 -507.67)"/><path class="cls-4" d="M44.9,513.16a47.8,47.8,0,0,0-1.68,14.76l0,1.86c0,.61.1,1.23.15,1.85l.33,3.7c.14,1.23.39,2.45.58,3.67s.37,2.45.64,3.65c.61,2.4,1.17,4.81,1.82,7.19l2.35,7a127.63,127.63,0,0,0,6.07,13.5l1.69,3.29c.28.55.55,1.1.85,1.64l1,1.58,3.86,6.31,1,1.58c.33.52.71,1,1.06,1.52l2.15,3,4.29,6c3.14,3.82,6.21,7.67,9.4,11.43l10.06,10.86L86,621.76l-9.7-11.6c-3.07-4-6-8.12-9-12.16l-4.07-6.39-2-3.18c-.34-.54-.7-1.06-1-1.61l-.91-1.66-3.62-6.65-.9-1.66c-.27-.56-.52-1.14-.79-1.72l-1.56-3.45A131.28,131.28,0,0,1,47,557.61l-2-7.28c-.55-2.46-1-4.94-1.48-7.4-.21-1.24-.31-2.5-.46-3.75s-.32-2.49-.41-3.74l-.13-3.77c0-.62-.06-1.25-.06-1.88l.07-1.88A48.45,48.45,0,0,1,44.9,513.16Z" transform="translate(-4.74 -507.67)"/><path class="cls-8" d="M209.88,590.23s36.59-14.32,46-76.52c1.53-5.34,7.63-2.61,7.63-2.61s45.5,34.45,30.16,97.44c-5.79,20.74-31.92,25.12-46.24,21.37-5.17-1.65-9.86,7.51-9.86,7.51s-15.73-6.11-24.18-19.49S209.88,590.23,209.88,590.23Z" transform="translate(-4.74 -507.67)"/><path class="cls-9" d="M261,513.16s25.39,57.83-41.71,109c-1.64-.7-.86-7-.86-7l14.4-16.91,12.06-18.93,6.56-11.7,6.87-18.45,2.86-11.54.34-10.72-.88-9.06-.62-2.81-.41-1.41-.18-.51.44-.53Z" transform="translate(-4.74 -507.67)"/><path class="cls-9" d="M211.12,596.89s45.85-11.27,47.42-82.95c-.94,0-3,1.71-3,1.71s-.33,45.24-45.67,74.58c-2.62,2.12,1.29,6.66,1.29,6.66" transform="translate(-4.74 -507.67)"/><path class="cls-9" d="M236.08,632.93s5.69-12.18,27.53-28.38c-1.91.17-21.43,3.13-30.71,26.41a9.85,9.85,0,0,0,1.44,2.55Z" transform="translate(-4.74 -507.67)"/><path class="cls-10" d="M209.88,590.23s36.59-14.32,46-76.52c1.53-5.34,7.63-2.61,7.63-2.61s45.5,34.45,30.16,97.44c-5.79,20.74-31.92,25.12-46.24,21.37-5.17-1.65-9.86,7.51-9.86,7.51s-15.73-6.11-24.18-19.49S209.88,590.23,209.88,590.23Z" transform="translate(-4.74 -507.67)"/><path class="cls-4" d="M263.61,604.55A37.38,37.38,0,0,0,252.7,609a44.69,44.69,0,0,0-8.95,7c-.66.65-1.25,1.39-1.87,2.07l-.92,1-.83,1.12-1.64,2.2-1.44,2.33-.72,1.15-.62,1.22-1.22,2.42c-.76,1.64-1.38,3.36-2.07,5l-12.69-7.12c1.44-1.73,2.79-3.48,4.28-5.12l2.33-2.38,1.16-1.17,1.26-1.09,2.5-2.15c.88-.67,1.79-1.3,2.67-1.94l1.33-.95,1.4-.85c.94-.55,1.84-1.14,2.8-1.63a49.26,49.26,0,0,1,11.91-4.51A38.87,38.87,0,0,1,263.61,604.55Z" transform="translate(-4.74 -507.67)"/><path class="cls-4" d="M259.38,513.16a48.15,48.15,0,0,1,2.44,14.75l.07,1.88c0,.63,0,1.26-.05,1.88l-.14,3.77c-.09,1.25-.27,2.49-.4,3.74s-.26,2.51-.47,3.75c-.49,2.46-.93,4.94-1.48,7.4l-2,7.28a131.28,131.28,0,0,1-5.48,14.07l-1.56,3.45c-.26.58-.51,1.16-.79,1.72l-.9,1.66L245,585.16l-.9,1.66c-.31.55-.67,1.07-1,1.61l-2,3.18L237,598c-3,4-5.94,8.15-9,12.16l-9.71,11.6-4.44-4.14,10.07-10.86c3.18-3.76,6.25-7.61,9.39-11.43l4.29-6,2.15-3c.35-.51.73-1,1.06-1.52l1-1.58,3.86-6.31,1-1.58c.3-.54.57-1.09.85-1.64l1.7-3.29a129.62,129.62,0,0,0,6.06-13.5l2.35-7c.66-2.38,1.21-4.79,1.82-7.19.27-1.2.42-2.43.64-3.65s.44-2.44.59-3.67l.32-3.7c.05-.62.12-1.24.15-1.85l0-1.86A47.8,47.8,0,0,0,259.38,513.16Z" transform="translate(-4.74 -507.67)"/></g><g id="Layer_4" data-name="Layer 4"><path class="cls-6" d="M398.65,566.4h58.74c32.37,0,47.43,17,47.43,38.23,0,17.79-10.22,29.36-22,33.35,10.69,3.39,27,14.17,27,36.66,0,28.85-22,44.83-51,44.83H398.65Zm54.86,63.65c22.18,0,30.82-8.73,30.82-23.67,0-13.54-9.7-23.21-27.68-23.21H418.57v46.88ZM418.57,702.7h37.81c19.22,0,32.58-9,32.58-28.1,0-16.62-10.67-27.78-36.47-27.78H418.57Z" transform="translate(-4.74 -507.67)"/><path class="cls-6" d="M562.55,673.55l-16.46,45.92h-20.2L580.4,566.4h25l56.86,153.07H640.62l-17-45.92Zm55.88-17.39c-14.59-40.23-22.61-61.6-25.92-73.27h-.22c-3.74,13-12.71,38.86-24.47,73.27Z" transform="translate(-4.74 -507.67)"/><path class="cls-6" d="M699.36,583.79H649.92V566.4H769.3v17.39H719.79V719.47H699.36Z" transform="translate(-4.74 -507.67)"/><path class="cls-6" d="M916.17,662.57c0-25.88.41-54.89,1.07-72h-1c-7.13,30.94-22.29,81.47-36.84,128.93H851.42C840.36,678,824.68,620.41,818,590.12h-1c1.29,17.8,1.92,49,1.92,75v54.33H789V567.79h48.81c11.82,39.63,25.08,89.34,29.64,112h.24c3.72-19.93,20.38-73.08,33-112h47V719.47H916.17Z" transform="translate(-4.74 -507.67)"/><path class="cls-6" d="M1123.58,643.11c0,42.21-25.34,78.56-74.6,78.56-47.61,0-72.52-34.6-72.52-78,0-44.14,27.52-78,74.64-78C1095.47,565.59,1123.58,596.68,1123.58,643.11ZM1010.33,643c0,29.61,13,52,39.89,52,29.16,0,39.49-24.43,39.49-51.46,0-28.69-11.75-51.24-40-51.24C1022.29,592.28,1010.33,613.44,1010.33,643Z" transform="translate(-4.74 -507.67)"/><path class="cls-6" d="M1152.26,567.79h60.14c44.18,0,73,29.09,73,73.94,0,44.24-28,77.74-74.43,77.74h-58.76ZM1185.06,693h24.59c29.08,0,41.93-21.62,41.93-51.16,0-24.78-12-47.53-41.74-47.53h-24.78Z" transform="translate(-4.74 -507.67)"/></g></svg>